<mxfile host="app.diagrams.net" modified="2023-09-08T07:52:23.629Z" agent="Mozilla/5.0 (Macintosh; Intel Mac OS X 10_15_7) AppleWebKit/605.1.15 (KHTML, like Gecko) Version/16.6 Safari/605.1.15" version="21.7.2" etag="NRC5LssgL-Wir1ctBmKG" type="github">
  <diagram name="第 1 页" id="yg9NMF4CQtwNHBXyD65Y">
    <mxGraphModel>
      <root>
        <mxCell id="0" />
        <mxCell id="1" parent="0" />
      </root>
    </mxGraphModel>
  </diagram>
</mxfile>
